{
	"asset":{
		"generator":"Khronos glTF Blender I/O v4.1.63",
		"version":"2.0"
	},
	"extensionsUsed":[
		"KHR_materials_unlit"
	],
	"scene":0,
	"scenes":[
		{
			"name":"Scene",
			"nodes":[
				0,
				1,
				2
			]
		}
	],
	"nodes":[
		{
			"mesh":0,
			"name":"body"
		},
		{
			"mesh":1,
			"name":"right_arm",
			"translation":[
				0.8258423209190369,
				0,
				0
			]
		},
		{
			"mesh":2,
			"name":"left_arm",
			"translation":[
				-0.825842022895813,
				0,
				0
			]
		}
	],
	"materials":[
		{
			"doubleSided":true,
			"extensions":{
				"KHR_materials_unlit":{}
			},
			"name":"material",
			"pbrMetallicRoughness":{
				"baseColorTexture":{
					"index":0
				},
				"metallicFactor":0,
				"roughnessFactor":0.9
			}
		}
	],
	"meshes":[
		{
			"name":"\u5186\u67f1",
			"primitives":[
				{
					"attributes":{
						"POSITION":0,
						"NORMAL":1,
						"TEXCOORD_0":2
					},
					"indices":3,
					"material":0
				}
			]
		},
		{
			"name":"\u7acb\u65b9\u4f53.002",
			"primitives":[
				{
					"attributes":{
						"POSITION":4,
						"NORMAL":5,
						"TEXCOORD_0":6
					},
					"indices":7,
					"material":0
				}
			]
		},
		{
			"name":"\u7acb\u65b9\u4f53.003",
			"primitives":[
				{
					"attributes":{
						"POSITION":8,
						"NORMAL":9,
						"TEXCOORD_0":10
					},
					"indices":11,
					"material":0
				}
			]
		}
	],
	"textures":[
		{
			"sampler":0,
			"source":0
		}
	],
	"images":[
		{
			"mimeType":"image/png",
			"name":"arm_tex",
			"uri":"arm_tex.png"
		}
	],
	"accessors":[
		{
			"bufferView":0,
			"componentType":5126,
			"count":185,
			"max":[
				0.9999999403953552,
				1,
				0.8110538721084595
			],
			"min":[
				-0.9999999403953552,
				-1,
				-0.8110538721084595
			],
			"type":"VEC3"
		},
		{
			"bufferView":1,
			"componentType":5126,
			"count":185,
			"type":"VEC3"
		},
		{
			"bufferView":2,
			"componentType":5126,
			"count":185,
			"type":"VEC2"
		},
		{
			"bufferView":3,
			"componentType":5123,
			"count":660,
			"type":"SCALAR"
		},
		{
			"bufferView":4,
			"componentType":5126,
			"count":56,
			"max":[
				2.004136323928833,
				0.0939704179763794,
				0.17661599814891815
			],
			"min":[
				0,
				-1.808021903038025,
				-0.17661599814891815
			],
			"type":"VEC3"
		},
		{
			"bufferView":5,
			"componentType":5126,
			"count":56,
			"type":"VEC3"
		},
		{
			"bufferView":6,
			"componentType":5126,
			"count":56,
			"type":"VEC2"
		},
		{
			"bufferView":7,
			"componentType":5123,
			"count":192,
			"type":"SCALAR"
		},
		{
			"bufferView":8,
			"componentType":5126,
			"count":56,
			"max":[
				-1.0728836059570312e-06,
				0.0939704179763794,
				0.17661599814891815
			],
			"min":[
				-2.0041372776031494,
				-1.808021903038025,
				-0.17661599814891815
			],
			"type":"VEC3"
		},
		{
			"bufferView":9,
			"componentType":5126,
			"count":56,
			"type":"VEC3"
		},
		{
			"bufferView":10,
			"componentType":5126,
			"count":56,
			"type":"VEC2"
		},
		{
			"bufferView":11,
			"componentType":5123,
			"count":192,
			"type":"SCALAR"
		}
	],
	"bufferViews":[
		{
			"buffer":0,
			"byteLength":2220,
			"byteOffset":0,
			"target":34962
		},
		{
			"buffer":0,
			"byteLength":2220,
			"byteOffset":2220,
			"target":34962
		},
		{
			"buffer":0,
			"byteLength":1480,
			"byteOffset":4440,
			"target":34962
		},
		{
			"buffer":0,
			"byteLength":1320,
			"byteOffset":5920,
			"target":34963
		},
		{
			"buffer":0,
			"byteLength":672,
			"byteOffset":7240,
			"target":34962
		},
		{
			"buffer":0,
			"byteLength":672,
			"byteOffset":7912,
			"target":34962
		},
		{
			"buffer":0,
			"byteLength":448,
			"byteOffset":8584,
			"target":34962
		},
		{
			"buffer":0,
			"byteLength":384,
			"byteOffset":9032,
			"target":34963
		},
		{
			"buffer":0,
			"byteLength":672,
			"byteOffset":9416,
			"target":34962
		},
		{
			"buffer":0,
			"byteLength":672,
			"byteOffset":10088,
			"target":34962
		},
		{
			"buffer":0,
			"byteLength":448,
			"byteOffset":10760,
			"target":34962
		},
		{
			"buffer":0,
			"byteLength":384,
			"byteOffset":11208,
			"target":34963
		}
	],
	"samplers":[
		{
			"magFilter":9729,
			"minFilter":9987
		}
	],
	"buffers":[
		{
			"byteLength":11592,
			"uri":"arm.bin"
		}
	]
}
