{
	"asset":{
		"generator":"Khronos glTF Blender I/O v4.1.63",
		"version":"2.0"
	},
	"scene":0,
	"scenes":[
		{
			"name":"Scene",
			"nodes":[
				0,
				1,
				2,
				3,
				4,
				5,
				6,
				7,
				8,
				9,
				10,
				11,
				12,
				13,
				14,
				15,
				16
			]
		}
	],
	"nodes":[
		{
			"mesh":0,
			"name":"body"
		},
		{
			"mesh":1,
			"name":"col_panelL"
		},
		{
			"mesh":2,
			"name":"col_panelB"
		},
		{
			"mesh":3,
			"name":"col_panelR"
		},
		{
			"mesh":4,
			"name":"col_exitPanelF"
		},
		{
			"mesh":5,
			"name":"col_exitPanelB"
		},
		{
			"mesh":6,
			"name":"col_exitPanelL"
		},
		{
			"mesh":7,
			"name":"col_exitPanelR"
		},
		{
			"mesh":8,
			"name":"col_floor.001"
		},
		{
			"mesh":9,
			"name":"col_floor.002"
		},
		{
			"mesh":10,
			"name":"col_floor.003"
		},
		{
			"mesh":11,
			"name":"col_floor.004"
		},
		{
			"mesh":12,
			"name":"col_floor.005"
		},
		{
			"mesh":13,
			"name":"col_floor.006"
		},
		{
			"mesh":14,
			"name":"col_floor.007"
		},
		{
			"mesh":15,
			"name":"col_floor.008"
		},
		{
			"mesh":16,
			"name":"goal",
			"translation":[
				-6,
				-1,
				6
			]
		}
	],
	"materials":[
		{
			"doubleSided":true,
			"name":"material",
			"pbrMetallicRoughness":{
				"baseColorTexture":{
					"index":0
				},
				"metallicFactor":0,
				"roughnessFactor":0.5
			}
		}
	],
	"meshes":[
		{
			"name":"\u7acb\u65b9\u4f53.004",
			"primitives":[
				{
					"attributes":{
						"POSITION":0,
						"NORMAL":1,
						"TEXCOORD_0":2
					},
					"indices":3,
					"material":0
				}
			]
		},
		{
			"name":"\u7acb\u65b9\u4f53.006",
			"primitives":[
				{
					"attributes":{
						"POSITION":4,
						"NORMAL":5,
						"TEXCOORD_0":6
					},
					"indices":7,
					"material":0
				}
			]
		},
		{
			"name":"\u7acb\u65b9\u4f53.007",
			"primitives":[
				{
					"attributes":{
						"POSITION":8,
						"NORMAL":9,
						"TEXCOORD_0":10
					},
					"indices":11,
					"material":0
				}
			]
		},
		{
			"name":"\u7acb\u65b9\u4f53.008",
			"primitives":[
				{
					"attributes":{
						"POSITION":12,
						"NORMAL":13,
						"TEXCOORD_0":14
					},
					"indices":15,
					"material":0
				}
			]
		},
		{
			"name":"\u7acb\u65b9\u4f53.010",
			"primitives":[
				{
					"attributes":{
						"POSITION":16,
						"NORMAL":17,
						"TEXCOORD_0":18
					},
					"indices":19,
					"material":0
				}
			]
		},
		{
			"name":"\u7acb\u65b9\u4f53.011",
			"primitives":[
				{
					"attributes":{
						"POSITION":20,
						"NORMAL":21,
						"TEXCOORD_0":22
					},
					"indices":23,
					"material":0
				}
			]
		},
		{
			"name":"\u7acb\u65b9\u4f53.012",
			"primitives":[
				{
					"attributes":{
						"POSITION":24,
						"NORMAL":25,
						"TEXCOORD_0":26
					},
					"indices":19,
					"material":0
				}
			]
		},
		{
			"name":"\u7acb\u65b9\u4f53.013",
			"primitives":[
				{
					"attributes":{
						"POSITION":27,
						"NORMAL":28,
						"TEXCOORD_0":29
					},
					"indices":23,
					"material":0
				}
			]
		},
		{
			"name":"\u7acb\u65b9\u4f53.014",
			"primitives":[
				{
					"attributes":{
						"POSITION":30,
						"NORMAL":31,
						"TEXCOORD_0":32
					},
					"indices":33,
					"material":0
				}
			]
		},
		{
			"name":"\u7acb\u65b9\u4f53.015",
			"primitives":[
				{
					"attributes":{
						"POSITION":34,
						"NORMAL":35,
						"TEXCOORD_0":36
					},
					"indices":23,
					"material":0
				}
			]
		},
		{
			"name":"\u7acb\u65b9\u4f53.016",
			"primitives":[
				{
					"attributes":{
						"POSITION":37,
						"NORMAL":38,
						"TEXCOORD_0":39
					},
					"indices":40,
					"material":0
				}
			]
		},
		{
			"name":"\u7acb\u65b9\u4f53.017",
			"primitives":[
				{
					"attributes":{
						"POSITION":41,
						"NORMAL":42,
						"TEXCOORD_0":43
					},
					"indices":15,
					"material":0
				}
			]
		},
		{
			"name":"\u7acb\u65b9\u4f53.018",
			"primitives":[
				{
					"attributes":{
						"POSITION":44,
						"NORMAL":45,
						"TEXCOORD_0":46
					},
					"indices":47,
					"material":0
				}
			]
		},
		{
			"name":"\u7acb\u65b9\u4f53.019",
			"primitives":[
				{
					"attributes":{
						"POSITION":48,
						"NORMAL":49,
						"TEXCOORD_0":50
					},
					"indices":51,
					"material":0
				}
			]
		},
		{
			"name":"\u7acb\u65b9\u4f53.020",
			"primitives":[
				{
					"attributes":{
						"POSITION":52,
						"NORMAL":53,
						"TEXCOORD_0":54
					},
					"indices":55,
					"material":0
				}
			]
		},
		{
			"name":"\u7acb\u65b9\u4f53.021",
			"primitives":[
				{
					"attributes":{
						"POSITION":56,
						"NORMAL":57,
						"TEXCOORD_0":58
					},
					"indices":59,
					"material":0
				}
			]
		},
		{
			"name":"\u7acb\u65b9\u4f53.022",
			"primitives":[
				{
					"attributes":{
						"POSITION":60,
						"NORMAL":61,
						"TEXCOORD_0":62
					},
					"indices":63,
					"material":0
				}
			]
		}
	],
	"textures":[
		{
			"sampler":0,
			"source":0
		}
	],
	"images":[
		{
			"mimeType":"image/png",
			"name":"frame_tex",
			"uri":"frame_tex.png"
		}
	],
	"accessors":[
		{
			"bufferView":0,
			"componentType":5126,
			"count":66,
			"max":[
				10.100000381469727,
				34,
				10.100000381469727
			],
			"min":[
				-10.100000381469727,
				0,
				-10.100000381469727
			],
			"type":"VEC3"
		},
		{
			"bufferView":1,
			"componentType":5126,
			"count":66,
			"type":"VEC3"
		},
		{
			"bufferView":2,
			"componentType":5126,
			"count":66,
			"type":"VEC2"
		},
		{
			"bufferView":3,
			"componentType":5123,
			"count":108,
			"type":"SCALAR"
		},
		{
			"bufferView":4,
			"componentType":5126,
			"count":4,
			"max":[
				-10.100000381469727,
				30.397920608520508,
				10.100000381469727
			],
			"min":[
				-10.100000381469727,
				7.602079391479492,
				-10.100000381469727
			],
			"type":"VEC3"
		},
		{
			"bufferView":5,
			"componentType":5126,
			"count":4,
			"type":"VEC3"
		},
		{
			"bufferView":6,
			"componentType":5126,
			"count":4,
			"type":"VEC2"
		},
		{
			"bufferView":7,
			"componentType":5123,
			"count":6,
			"type":"SCALAR"
		},
		{
			"bufferView":8,
			"componentType":5126,
			"count":4,
			"max":[
				10.100000381469727,
				30.397920608520508,
				-10.100000381469727
			],
			"min":[
				-10.100000381469727,
				7.602079391479492,
				-10.100000381469727
			],
			"type":"VEC3"
		},
		{
			"bufferView":9,
			"componentType":5126,
			"count":4,
			"type":"VEC3"
		},
		{
			"bufferView":10,
			"componentType":5126,
			"count":4,
			"type":"VEC2"
		},
		{
			"bufferView":11,
			"componentType":5123,
			"count":6,
			"type":"SCALAR"
		},
		{
			"bufferView":12,
			"componentType":5126,
			"count":4,
			"max":[
				10.100000381469727,
				30.397920608520508,
				10.100000381469727
			],
			"min":[
				10.100000381469727,
				7.602079391479492,
				-10.100000381469727
			],
			"type":"VEC3"
		},
		{
			"bufferView":13,
			"componentType":5126,
			"count":4,
			"type":"VEC3"
		},
		{
			"bufferView":14,
			"componentType":5126,
			"count":4,
			"type":"VEC2"
		},
		{
			"bufferView":15,
			"componentType":5123,
			"count":6,
			"type":"SCALAR"
		},
		{
			"bufferView":16,
			"componentType":5126,
			"count":4,
			"max":[
				-2.700000047683716,
				10.602079391479492,
				9.300000190734863
			],
			"min":[
				-9.300000190734863,
				7.602079391479492,
				9.300000190734863
			],
			"type":"VEC3"
		},
		{
			"bufferView":17,
			"componentType":5126,
			"count":4,
			"type":"VEC3"
		},
		{
			"bufferView":18,
			"componentType":5126,
			"count":4,
			"type":"VEC2"
		},
		{
			"bufferView":19,
			"componentType":5123,
			"count":6,
			"type":"SCALAR"
		},
		{
			"bufferView":20,
			"componentType":5126,
			"count":4,
			"max":[
				-2.700000047683716,
				10.602079391479492,
				2.700000047683716
			],
			"min":[
				-9.300000190734863,
				7.602079391479492,
				2.700000047683716
			],
			"type":"VEC3"
		},
		{
			"bufferView":21,
			"componentType":5126,
			"count":4,
			"type":"VEC3"
		},
		{
			"bufferView":22,
			"componentType":5126,
			"count":4,
			"type":"VEC2"
		},
		{
			"bufferView":23,
			"componentType":5123,
			"count":6,
			"type":"SCALAR"
		},
		{
			"bufferView":24,
			"componentType":5126,
			"count":4,
			"max":[
				-9.300000190734863,
				10.602079391479492,
				9.300000190734863
			],
			"min":[
				-9.300000190734863,
				7.602079391479492,
				2.700000047683716
			],
			"type":"VEC3"
		},
		{
			"bufferView":25,
			"componentType":5126,
			"count":4,
			"type":"VEC3"
		},
		{
			"bufferView":26,
			"componentType":5126,
			"count":4,
			"type":"VEC2"
		},
		{
			"bufferView":27,
			"componentType":5126,
			"count":4,
			"max":[
				-2.700000047683716,
				10.602079391479492,
				9.300000190734863
			],
			"min":[
				-2.700000047683716,
				7.602079391479492,
				2.700000047683716
			],
			"type":"VEC3"
		},
		{
			"bufferView":28,
			"componentType":5126,
			"count":4,
			"type":"VEC3"
		},
		{
			"bufferView":29,
			"componentType":5126,
			"count":4,
			"type":"VEC2"
		},
		{
			"bufferView":30,
			"componentType":5126,
			"count":4,
			"max":[
				10.100000381469727,
				7.602079391479492,
				2.700000047683716
			],
			"min":[
				-2.700000047683716,
				7.602079391479492,
				-10.100000381469727
			],
			"type":"VEC3"
		},
		{
			"bufferView":31,
			"componentType":5126,
			"count":4,
			"type":"VEC3"
		},
		{
			"bufferView":32,
			"componentType":5126,
			"count":4,
			"type":"VEC2"
		},
		{
			"bufferView":33,
			"componentType":5123,
			"count":6,
			"type":"SCALAR"
		},
		{
			"bufferView":34,
			"componentType":5126,
			"count":4,
			"max":[
				-2.700000047683716,
				7.602079391479492,
				2.700000047683716
			],
			"min":[
				-9.300000190734863,
				7.602079391479492,
				-10.100000381469727
			],
			"type":"VEC3"
		},
		{
			"bufferView":35,
			"componentType":5126,
			"count":4,
			"type":"VEC3"
		},
		{
			"bufferView":36,
			"componentType":5126,
			"count":4,
			"type":"VEC2"
		},
		{
			"bufferView":37,
			"componentType":5126,
			"count":4,
			"max":[
				-9.300000190734863,
				7.602079391479492,
				2.700000047683716
			],
			"min":[
				-10.100000381469727,
				7.602079391479492,
				-10.100000381469727
			],
			"type":"VEC3"
		},
		{
			"bufferView":38,
			"componentType":5126,
			"count":4,
			"type":"VEC3"
		},
		{
			"bufferView":39,
			"componentType":5126,
			"count":4,
			"type":"VEC2"
		},
		{
			"bufferView":40,
			"componentType":5123,
			"count":6,
			"type":"SCALAR"
		},
		{
			"bufferView":41,
			"componentType":5126,
			"count":4,
			"max":[
				-9.300000190734863,
				7.602079391479492,
				9.300000190734863
			],
			"min":[
				-10.100000381469727,
				7.602079391479492,
				2.700000047683716
			],
			"type":"VEC3"
		},
		{
			"bufferView":42,
			"componentType":5126,
			"count":4,
			"type":"VEC3"
		},
		{
			"bufferView":43,
			"componentType":5126,
			"count":4,
			"type":"VEC2"
		},
		{
			"bufferView":44,
			"componentType":5126,
			"count":4,
			"max":[
				-9.300000190734863,
				7.602079391479492,
				10.100000381469727
			],
			"min":[
				-10.100000381469727,
				7.602079391479492,
				9.300000190734863
			],
			"type":"VEC3"
		},
		{
			"bufferView":45,
			"componentType":5126,
			"count":4,
			"type":"VEC3"
		},
		{
			"bufferView":46,
			"componentType":5126,
			"count":4,
			"type":"VEC2"
		},
		{
			"bufferView":47,
			"componentType":5123,
			"count":6,
			"type":"SCALAR"
		},
		{
			"bufferView":48,
			"componentType":5126,
			"count":4,
			"max":[
				-2.700000047683716,
				7.602079391479492,
				10.100000381469727
			],
			"min":[
				-9.300000190734863,
				7.602079391479492,
				9.300000190734863
			],
			"type":"VEC3"
		},
		{
			"bufferView":49,
			"componentType":5126,
			"count":4,
			"type":"VEC3"
		},
		{
			"bufferView":50,
			"componentType":5126,
			"count":4,
			"type":"VEC2"
		},
		{
			"bufferView":51,
			"componentType":5123,
			"count":6,
			"type":"SCALAR"
		},
		{
			"bufferView":52,
			"componentType":5126,
			"count":4,
			"max":[
				10.100000381469727,
				7.602079391479492,
				10.100000381469727
			],
			"min":[
				-2.700000047683716,
				7.602079391479492,
				9.300000190734863
			],
			"type":"VEC3"
		},
		{
			"bufferView":53,
			"componentType":5126,
			"count":4,
			"type":"VEC3"
		},
		{
			"bufferView":54,
			"componentType":5126,
			"count":4,
			"type":"VEC2"
		},
		{
			"bufferView":55,
			"componentType":5123,
			"count":6,
			"type":"SCALAR"
		},
		{
			"bufferView":56,
			"componentType":5126,
			"count":4,
			"max":[
				10.100000381469727,
				7.602079391479492,
				9.300000190734863
			],
			"min":[
				-2.700000047683716,
				7.602079391479492,
				2.700000047683716
			],
			"type":"VEC3"
		},
		{
			"bufferView":57,
			"componentType":5126,
			"count":4,
			"type":"VEC3"
		},
		{
			"bufferView":58,
			"componentType":5126,
			"count":4,
			"type":"VEC2"
		},
		{
			"bufferView":59,
			"componentType":5123,
			"count":6,
			"type":"SCALAR"
		},
		{
			"bufferView":60,
			"componentType":5126,
			"count":24,
			"max":[
				1,
				1,
				1
			],
			"min":[
				-1,
				-1,
				-1
			],
			"type":"VEC3"
		},
		{
			"bufferView":61,
			"componentType":5126,
			"count":24,
			"type":"VEC3"
		},
		{
			"bufferView":62,
			"componentType":5126,
			"count":24,
			"type":"VEC2"
		},
		{
			"bufferView":63,
			"componentType":5123,
			"count":36,
			"type":"SCALAR"
		}
	],
	"bufferViews":[
		{
			"buffer":0,
			"byteLength":792,
			"byteOffset":0,
			"target":34962
		},
		{
			"buffer":0,
			"byteLength":792,
			"byteOffset":792,
			"target":34962
		},
		{
			"buffer":0,
			"byteLength":528,
			"byteOffset":1584,
			"target":34962
		},
		{
			"buffer":0,
			"byteLength":216,
			"byteOffset":2112,
			"target":34963
		},
		{
			"buffer":0,
			"byteLength":48,
			"byteOffset":2328,
			"target":34962
		},
		{
			"buffer":0,
			"byteLength":48,
			"byteOffset":2376,
			"target":34962
		},
		{
			"buffer":0,
			"byteLength":32,
			"byteOffset":2424,
			"target":34962
		},
		{
			"buffer":0,
			"byteLength":12,
			"byteOffset":2456,
			"target":34963
		},
		{
			"buffer":0,
			"byteLength":48,
			"byteOffset":2468,
			"target":34962
		},
		{
			"buffer":0,
			"byteLength":48,
			"byteOffset":2516,
			"target":34962
		},
		{
			"buffer":0,
			"byteLength":32,
			"byteOffset":2564,
			"target":34962
		},
		{
			"buffer":0,
			"byteLength":12,
			"byteOffset":2596,
			"target":34963
		},
		{
			"buffer":0,
			"byteLength":48,
			"byteOffset":2608,
			"target":34962
		},
		{
			"buffer":0,
			"byteLength":48,
			"byteOffset":2656,
			"target":34962
		},
		{
			"buffer":0,
			"byteLength":32,
			"byteOffset":2704,
			"target":34962
		},
		{
			"buffer":0,
			"byteLength":12,
			"byteOffset":2736,
			"target":34963
		},
		{
			"buffer":0,
			"byteLength":48,
			"byteOffset":2748,
			"target":34962
		},
		{
			"buffer":0,
			"byteLength":48,
			"byteOffset":2796,
			"target":34962
		},
		{
			"buffer":0,
			"byteLength":32,
			"byteOffset":2844,
			"target":34962
		},
		{
			"buffer":0,
			"byteLength":12,
			"byteOffset":2876,
			"target":34963
		},
		{
			"buffer":0,
			"byteLength":48,
			"byteOffset":2888,
			"target":34962
		},
		{
			"buffer":0,
			"byteLength":48,
			"byteOffset":2936,
			"target":34962
		},
		{
			"buffer":0,
			"byteLength":32,
			"byteOffset":2984,
			"target":34962
		},
		{
			"buffer":0,
			"byteLength":12,
			"byteOffset":3016,
			"target":34963
		},
		{
			"buffer":0,
			"byteLength":48,
			"byteOffset":3028,
			"target":34962
		},
		{
			"buffer":0,
			"byteLength":48,
			"byteOffset":3076,
			"target":34962
		},
		{
			"buffer":0,
			"byteLength":32,
			"byteOffset":3124,
			"target":34962
		},
		{
			"buffer":0,
			"byteLength":48,
			"byteOffset":3156,
			"target":34962
		},
		{
			"buffer":0,
			"byteLength":48,
			"byteOffset":3204,
			"target":34962
		},
		{
			"buffer":0,
			"byteLength":32,
			"byteOffset":3252,
			"target":34962
		},
		{
			"buffer":0,
			"byteLength":48,
			"byteOffset":3284,
			"target":34962
		},
		{
			"buffer":0,
			"byteLength":48,
			"byteOffset":3332,
			"target":34962
		},
		{
			"buffer":0,
			"byteLength":32,
			"byteOffset":3380,
			"target":34962
		},
		{
			"buffer":0,
			"byteLength":12,
			"byteOffset":3412,
			"target":34963
		},
		{
			"buffer":0,
			"byteLength":48,
			"byteOffset":3424,
			"target":34962
		},
		{
			"buffer":0,
			"byteLength":48,
			"byteOffset":3472,
			"target":34962
		},
		{
			"buffer":0,
			"byteLength":32,
			"byteOffset":3520,
			"target":34962
		},
		{
			"buffer":0,
			"byteLength":48,
			"byteOffset":3552,
			"target":34962
		},
		{
			"buffer":0,
			"byteLength":48,
			"byteOffset":3600,
			"target":34962
		},
		{
			"buffer":0,
			"byteLength":32,
			"byteOffset":3648,
			"target":34962
		},
		{
			"buffer":0,
			"byteLength":12,
			"byteOffset":3680,
			"target":34963
		},
		{
			"buffer":0,
			"byteLength":48,
			"byteOffset":3692,
			"target":34962
		},
		{
			"buffer":0,
			"byteLength":48,
			"byteOffset":3740,
			"target":34962
		},
		{
			"buffer":0,
			"byteLength":32,
			"byteOffset":3788,
			"target":34962
		},
		{
			"buffer":0,
			"byteLength":48,
			"byteOffset":3820,
			"target":34962
		},
		{
			"buffer":0,
			"byteLength":48,
			"byteOffset":3868,
			"target":34962
		},
		{
			"buffer":0,
			"byteLength":32,
			"byteOffset":3916,
			"target":34962
		},
		{
			"buffer":0,
			"byteLength":12,
			"byteOffset":3948,
			"target":34963
		},
		{
			"buffer":0,
			"byteLength":48,
			"byteOffset":3960,
			"target":34962
		},
		{
			"buffer":0,
			"byteLength":48,
			"byteOffset":4008,
			"target":34962
		},
		{
			"buffer":0,
			"byteLength":32,
			"byteOffset":4056,
			"target":34962
		},
		{
			"buffer":0,
			"byteLength":12,
			"byteOffset":4088,
			"target":34963
		},
		{
			"buffer":0,
			"byteLength":48,
			"byteOffset":4100,
			"target":34962
		},
		{
			"buffer":0,
			"byteLength":48,
			"byteOffset":4148,
			"target":34962
		},
		{
			"buffer":0,
			"byteLength":32,
			"byteOffset":4196,
			"target":34962
		},
		{
			"buffer":0,
			"byteLength":12,
			"byteOffset":4228,
			"target":34963
		},
		{
			"buffer":0,
			"byteLength":48,
			"byteOffset":4240,
			"target":34962
		},
		{
			"buffer":0,
			"byteLength":48,
			"byteOffset":4288,
			"target":34962
		},
		{
			"buffer":0,
			"byteLength":32,
			"byteOffset":4336,
			"target":34962
		},
		{
			"buffer":0,
			"byteLength":12,
			"byteOffset":4368,
			"target":34963
		},
		{
			"buffer":0,
			"byteLength":288,
			"byteOffset":4380,
			"target":34962
		},
		{
			"buffer":0,
			"byteLength":288,
			"byteOffset":4668,
			"target":34962
		},
		{
			"buffer":0,
			"byteLength":192,
			"byteOffset":4956,
			"target":34962
		},
		{
			"buffer":0,
			"byteLength":72,
			"byteOffset":5148,
			"target":34963
		}
	],
	"samplers":[
		{
			"magFilter":9729,
			"minFilter":9987
		}
	],
	"buffers":[
		{
			"byteLength":5220,
			"uri":"frame.bin"
		}
	]
}
