{
	"asset":{
		"generator":"Khronos glTF Blender I/O v4.1.63",
		"version":"2.0"
	},
	"scene":0,
	"scenes":[
		{
			"name":"Scene",
			"nodes":[
				0,
				1,
				2,
				3,
				4,
				5,
				6,
				7,
				8,
				9,
				10,
				11,
				12,
				13,
				14,
				15,
				16
			]
		}
	],
	"nodes":[
		{
			"mesh":0,
			"name":"body"
		},
		{
			"mesh":1,
			"name":"col_panelL"
		},
		{
			"mesh":2,
			"name":"col_panelB"
		},
		{
			"mesh":3,
			"name":"col_panelR"
		},
		{
			"mesh":4,
			"name":"col_exitPanelF"
		},
		{
			"mesh":5,
			"name":"col_exitPanelB"
		},
		{
			"mesh":6,
			"name":"col_exitPanelL"
		},
		{
			"mesh":7,
			"name":"col_exitPanelR"
		},
		{
			"mesh":8,
			"name":"col_floor.001"
		},
		{
			"mesh":9,
			"name":"col_floor.002"
		},
		{
			"mesh":10,
			"name":"col_floor.003"
		},
		{
			"mesh":11,
			"name":"col_floor.004"
		},
		{
			"mesh":12,
			"name":"col_floor.005"
		},
		{
			"mesh":13,
			"name":"col_floor.006"
		},
		{
			"mesh":14,
			"name":"col_floor.007"
		},
		{
			"mesh":15,
			"name":"col_floor.008"
		},
		{
			"mesh":16,
			"name":"goal",
			"translation":[
				-6,
				-1,
				6
			]
		}
	],
	"materials":[
		{
			"doubleSided":true,
			"name":"\u30de\u30c6\u30ea\u30a2\u30eb.001",
			"pbrMetallicRoughness":{}
		}
	],
	"meshes":[
		{
			"name":"\u7acb\u65b9\u4f53.004",
			"primitives":[
				{
					"attributes":{
						"POSITION":0,
						"NORMAL":1,
						"TEXCOORD_0":2
					},
					"indices":3,
					"material":0
				}
			]
		},
		{
			"name":"\u7acb\u65b9\u4f53.006",
			"primitives":[
				{
					"attributes":{
						"POSITION":4,
						"NORMAL":5,
						"TEXCOORD_0":6
					},
					"indices":7,
					"material":0
				}
			]
		},
		{
			"name":"\u7acb\u65b9\u4f53.007",
			"primitives":[
				{
					"attributes":{
						"POSITION":8,
						"NORMAL":9,
						"TEXCOORD_0":10
					},
					"indices":11,
					"material":0
				}
			]
		},
		{
			"name":"\u7acb\u65b9\u4f53.008",
			"primitives":[
				{
					"attributes":{
						"POSITION":12,
						"NORMAL":13,
						"TEXCOORD_0":14
					},
					"indices":15,
					"material":0
				}
			]
		},
		{
			"name":"\u7acb\u65b9\u4f53.010",
			"primitives":[
				{
					"attributes":{
						"POSITION":16,
						"NORMAL":17,
						"TEXCOORD_0":18
					},
					"indices":19,
					"material":0
				}
			]
		},
		{
			"name":"\u7acb\u65b9\u4f53.011",
			"primitives":[
				{
					"attributes":{
						"POSITION":20,
						"NORMAL":21,
						"TEXCOORD_0":22
					},
					"indices":23,
					"material":0
				}
			]
		},
		{
			"name":"\u7acb\u65b9\u4f53.012",
			"primitives":[
				{
					"attributes":{
						"POSITION":24,
						"NORMAL":25,
						"TEXCOORD_0":26
					},
					"indices":19,
					"material":0
				}
			]
		},
		{
			"name":"\u7acb\u65b9\u4f53.013",
			"primitives":[
				{
					"attributes":{
						"POSITION":27,
						"NORMAL":28,
						"TEXCOORD_0":29
					},
					"indices":23,
					"material":0
				}
			]
		},
		{
			"name":"\u7acb\u65b9\u4f53.014",
			"primitives":[
				{
					"attributes":{
						"POSITION":30,
						"NORMAL":31,
						"TEXCOORD_0":32
					},
					"indices":33,
					"material":0
				}
			]
		},
		{
			"name":"\u7acb\u65b9\u4f53.015",
			"primitives":[
				{
					"attributes":{
						"POSITION":34,
						"NORMAL":35,
						"TEXCOORD_0":36
					},
					"indices":23,
					"material":0
				}
			]
		},
		{
			"name":"\u7acb\u65b9\u4f53.016",
			"primitives":[
				{
					"attributes":{
						"POSITION":37,
						"NORMAL":38,
						"TEXCOORD_0":39
					},
					"indices":40,
					"material":0
				}
			]
		},
		{
			"name":"\u7acb\u65b9\u4f53.017",
			"primitives":[
				{
					"attributes":{
						"POSITION":41,
						"NORMAL":42,
						"TEXCOORD_0":43
					},
					"indices":15,
					"material":0
				}
			]
		},
		{
			"name":"\u7acb\u65b9\u4f53.018",
			"primitives":[
				{
					"attributes":{
						"POSITION":44,
						"NORMAL":45,
						"TEXCOORD_0":46
					},
					"indices":47,
					"material":0
				}
			]
		},
		{
			"name":"\u7acb\u65b9\u4f53.019",
			"primitives":[
				{
					"attributes":{
						"POSITION":48,
						"NORMAL":49,
						"TEXCOORD_0":50
					},
					"indices":51,
					"material":0
				}
			]
		},
		{
			"name":"\u7acb\u65b9\u4f53.020",
			"primitives":[
				{
					"attributes":{
						"POSITION":52,
						"NORMAL":53,
						"TEXCOORD_0":54
					},
					"indices":55,
					"material":0
				}
			]
		},
		{
			"name":"\u7acb\u65b9\u4f53.021",
			"primitives":[
				{
					"attributes":{
						"POSITION":56,
						"NORMAL":57,
						"TEXCOORD_0":58
					},
					"indices":59,
					"material":0
				}
			]
		},
		{
			"name":"\u7acb\u65b9\u4f53.022",
			"primitives":[
				{
					"attributes":{
						"POSITION":60,
						"NORMAL":61,
						"TEXCOORD_0":62
					},
					"indices":63
				}
			]
		}
	],
	"accessors":[
		{
			"bufferView":0,
			"componentType":5126,
			"count":64,
			"max":[
				10.100000381469727,
				34,
				10.100000381469727
			],
			"min":[
				-10.100000381469727,
				0,
				-10.100000381469727
			],
			"type":"VEC3"
		},
		{
			"bufferView":1,
			"componentType":5126,
			"count":64,
			"type":"VEC3"
		},
		{
			"bufferView":2,
			"componentType":5126,
			"count":64,
			"type":"VEC2"
		},
		{
			"bufferView":3,
			"componentType":5123,
			"count":108,
			"type":"SCALAR"
		},
		{
			"bufferView":4,
			"componentType":5126,
			"count":4,
			"max":[
				-10.100000381469727,
				30.397920608520508,
				10.100000381469727
			],
			"min":[
				-10.100000381469727,
				7.602079391479492,
				-10.100000381469727
			],
			"type":"VEC3"
		},
		{
			"bufferView":5,
			"componentType":5126,
			"count":4,
			"type":"VEC3"
		},
		{
			"bufferView":6,
			"componentType":5126,
			"count":4,
			"type":"VEC2"
		},
		{
			"bufferView":7,
			"componentType":5123,
			"count":6,
			"type":"SCALAR"
		},
		{
			"bufferView":8,
			"componentType":5126,
			"count":4,
			"max":[
				10.100000381469727,
				30.397920608520508,
				-10.100000381469727
			],
			"min":[
				-10.100000381469727,
				7.602079391479492,
				-10.100000381469727
			],
			"type":"VEC3"
		},
		{
			"bufferView":9,
			"componentType":5126,
			"count":4,
			"type":"VEC3"
		},
		{
			"bufferView":10,
			"componentType":5126,
			"count":4,
			"type":"VEC2"
		},
		{
			"bufferView":11,
			"componentType":5123,
			"count":6,
			"type":"SCALAR"
		},
		{
			"bufferView":12,
			"componentType":5126,
			"count":4,
			"max":[
				10.100000381469727,
				30.397920608520508,
				10.100000381469727
			],
			"min":[
				10.100000381469727,
				7.602079391479492,
				-10.100000381469727
			],
			"type":"VEC3"
		},
		{
			"bufferView":13,
			"componentType":5126,
			"count":4,
			"type":"VEC3"
		},
		{
			"bufferView":14,
			"componentType":5126,
			"count":4,
			"type":"VEC2"
		},
		{
			"bufferView":15,
			"componentType":5123,
			"count":6,
			"type":"SCALAR"
		},
		{
			"bufferView":16,
			"componentType":5126,
			"count":4,
			"max":[
				-2.700000047683716,
				10.602079391479492,
				9.300000190734863
			],
			"min":[
				-9.300000190734863,
				7.602079391479492,
				9.300000190734863
			],
			"type":"VEC3"
		},
		{
			"bufferView":17,
			"componentType":5126,
			"count":4,
			"type":"VEC3"
		},
		{
			"bufferView":18,
			"componentType":5126,
			"count":4,
			"type":"VEC2"
		},
		{
			"bufferView":19,
			"componentType":5123,
			"count":6,
			"type":"SCALAR"
		},
		{
			"bufferView":20,
			"componentType":5126,
			"count":4,
			"max":[
				-2.700000047683716,
				10.602079391479492,
				2.700000047683716
			],
			"min":[
				-9.300000190734863,
				7.602079391479492,
				2.700000047683716
			],
			"type":"VEC3"
		},
		{
			"bufferView":21,
			"componentType":5126,
			"count":4,
			"type":"VEC3"
		},
		{
			"bufferView":22,
			"componentType":5126,
			"count":4,
			"type":"VEC2"
		},
		{
			"bufferView":23,
			"componentType":5123,
			"count":6,
			"type":"SCALAR"
		},
		{
			"bufferView":24,
			"componentType":5126,
			"count":4,
			"max":[
				-9.300000190734863,
				10.602079391479492,
				9.300000190734863
			],
			"min":[
				-9.300000190734863,
				7.602079391479492,
				2.700000047683716
			],
			"type":"VEC3"
		},
		{
			"bufferView":25,
			"componentType":5126,
			"count":4,
			"type":"VEC3"
		},
		{
			"bufferView":26,
			"componentType":5126,
			"count":4,
			"type":"VEC2"
		},
		{
			"bufferView":27,
			"componentType":5126,
			"count":4,
			"max":[
				-2.700000047683716,
				10.602079391479492,
				9.300000190734863
			],
			"min":[
				-2.700000047683716,
				7.602079391479492,
				2.700000047683716
			],
			"type":"VEC3"
		},
		{
			"bufferView":28,
			"componentType":5126,
			"count":4,
			"type":"VEC3"
		},
		{
			"bufferView":29,
			"componentType":5126,
			"count":4,
			"type":"VEC2"
		},
		{
			"bufferView":30,
			"componentType":5126,
			"count":4,
			"max":[
				10.100000381469727,
				7.602079391479492,
				2.700000047683716
			],
			"min":[
				-2.700000047683716,
				7.602079391479492,
				-10.100000381469727
			],
			"type":"VEC3"
		},
		{
			"bufferView":31,
			"componentType":5126,
			"count":4,
			"type":"VEC3"
		},
		{
			"bufferView":32,
			"componentType":5126,
			"count":4,
			"type":"VEC2"
		},
		{
			"bufferView":33,
			"componentType":5123,
			"count":6,
			"type":"SCALAR"
		},
		{
			"bufferView":34,
			"componentType":5126,
			"count":4,
			"max":[
				-2.700000047683716,
				7.602079391479492,
				2.700000047683716
			],
			"min":[
				-9.300000190734863,
				7.602079391479492,
				-10.100000381469727
			],
			"type":"VEC3"
		},
		{
			"bufferView":35,
			"componentType":5126,
			"count":4,
			"type":"VEC3"
		},
		{
			"bufferView":36,
			"componentType":5126,
			"count":4,
			"type":"VEC2"
		},
		{
			"bufferView":37,
			"componentType":5126,
			"count":4,
			"max":[
				-9.300000190734863,
				7.602079391479492,
				2.700000047683716
			],
			"min":[
				-10.100000381469727,
				7.602079391479492,
				-10.100000381469727
			],
			"type":"VEC3"
		},
		{
			"bufferView":38,
			"componentType":5126,
			"count":4,
			"type":"VEC3"
		},
		{
			"bufferView":39,
			"componentType":5126,
			"count":4,
			"type":"VEC2"
		},
		{
			"bufferView":40,
			"componentType":5123,
			"count":6,
			"type":"SCALAR"
		},
		{
			"bufferView":41,
			"componentType":5126,
			"count":4,
			"max":[
				-9.300000190734863,
				7.602079391479492,
				9.300000190734863
			],
			"min":[
				-10.100000381469727,
				7.602079391479492,
				2.700000047683716
			],
			"type":"VEC3"
		},
		{
			"bufferView":42,
			"componentType":5126,
			"count":4,
			"type":"VEC3"
		},
		{
			"bufferView":43,
			"componentType":5126,
			"count":4,
			"type":"VEC2"
		},
		{
			"bufferView":44,
			"componentType":5126,
			"count":4,
			"max":[
				-9.300000190734863,
				7.602079391479492,
				10.100000381469727
			],
			"min":[
				-10.100000381469727,
				7.602079391479492,
				9.300000190734863
			],
			"type":"VEC3"
		},
		{
			"bufferView":45,
			"componentType":5126,
			"count":4,
			"type":"VEC3"
		},
		{
			"bufferView":46,
			"componentType":5126,
			"count":4,
			"type":"VEC2"
		},
		{
			"bufferView":47,
			"componentType":5123,
			"count":6,
			"type":"SCALAR"
		},
		{
			"bufferView":48,
			"componentType":5126,
			"count":4,
			"max":[
				-2.700000047683716,
				7.602079391479492,
				10.100000381469727
			],
			"min":[
				-9.300000190734863,
				7.602079391479492,
				9.300000190734863
			],
			"type":"VEC3"
		},
		{
			"bufferView":49,
			"componentType":5126,
			"count":4,
			"type":"VEC3"
		},
		{
			"bufferView":50,
			"componentType":5126,
			"count":4,
			"type":"VEC2"
		},
		{
			"bufferView":51,
			"componentType":5123,
			"count":6,
			"type":"SCALAR"
		},
		{
			"bufferView":52,
			"componentType":5126,
			"count":4,
			"max":[
				10.100000381469727,
				7.602079391479492,
				10.100000381469727
			],
			"min":[
				-2.700000047683716,
				7.602079391479492,
				9.300000190734863
			],
			"type":"VEC3"
		},
		{
			"bufferView":53,
			"componentType":5126,
			"count":4,
			"type":"VEC3"
		},
		{
			"bufferView":54,
			"componentType":5126,
			"count":4,
			"type":"VEC2"
		},
		{
			"bufferView":55,
			"componentType":5123,
			"count":6,
			"type":"SCALAR"
		},
		{
			"bufferView":56,
			"componentType":5126,
			"count":4,
			"max":[
				10.100000381469727,
				7.602079391479492,
				9.300000190734863
			],
			"min":[
				-2.700000047683716,
				7.602079391479492,
				2.700000047683716
			],
			"type":"VEC3"
		},
		{
			"bufferView":57,
			"componentType":5126,
			"count":4,
			"type":"VEC3"
		},
		{
			"bufferView":58,
			"componentType":5126,
			"count":4,
			"type":"VEC2"
		},
		{
			"bufferView":59,
			"componentType":5123,
			"count":6,
			"type":"SCALAR"
		},
		{
			"bufferView":60,
			"componentType":5126,
			"count":24,
			"max":[
				1,
				1,
				1
			],
			"min":[
				-1,
				-1,
				-1
			],
			"type":"VEC3"
		},
		{
			"bufferView":61,
			"componentType":5126,
			"count":24,
			"type":"VEC3"
		},
		{
			"bufferView":62,
			"componentType":5126,
			"count":24,
			"type":"VEC2"
		},
		{
			"bufferView":63,
			"componentType":5123,
			"count":36,
			"type":"SCALAR"
		}
	],
	"bufferViews":[
		{
			"buffer":0,
			"byteLength":768,
			"byteOffset":0,
			"target":34962
		},
		{
			"buffer":0,
			"byteLength":768,
			"byteOffset":768,
			"target":34962
		},
		{
			"buffer":0,
			"byteLength":512,
			"byteOffset":1536,
			"target":34962
		},
		{
			"buffer":0,
			"byteLength":216,
			"byteOffset":2048,
			"target":34963
		},
		{
			"buffer":0,
			"byteLength":48,
			"byteOffset":2264,
			"target":34962
		},
		{
			"buffer":0,
			"byteLength":48,
			"byteOffset":2312,
			"target":34962
		},
		{
			"buffer":0,
			"byteLength":32,
			"byteOffset":2360,
			"target":34962
		},
		{
			"buffer":0,
			"byteLength":12,
			"byteOffset":2392,
			"target":34963
		},
		{
			"buffer":0,
			"byteLength":48,
			"byteOffset":2404,
			"target":34962
		},
		{
			"buffer":0,
			"byteLength":48,
			"byteOffset":2452,
			"target":34962
		},
		{
			"buffer":0,
			"byteLength":32,
			"byteOffset":2500,
			"target":34962
		},
		{
			"buffer":0,
			"byteLength":12,
			"byteOffset":2532,
			"target":34963
		},
		{
			"buffer":0,
			"byteLength":48,
			"byteOffset":2544,
			"target":34962
		},
		{
			"buffer":0,
			"byteLength":48,
			"byteOffset":2592,
			"target":34962
		},
		{
			"buffer":0,
			"byteLength":32,
			"byteOffset":2640,
			"target":34962
		},
		{
			"buffer":0,
			"byteLength":12,
			"byteOffset":2672,
			"target":34963
		},
		{
			"buffer":0,
			"byteLength":48,
			"byteOffset":2684,
			"target":34962
		},
		{
			"buffer":0,
			"byteLength":48,
			"byteOffset":2732,
			"target":34962
		},
		{
			"buffer":0,
			"byteLength":32,
			"byteOffset":2780,
			"target":34962
		},
		{
			"buffer":0,
			"byteLength":12,
			"byteOffset":2812,
			"target":34963
		},
		{
			"buffer":0,
			"byteLength":48,
			"byteOffset":2824,
			"target":34962
		},
		{
			"buffer":0,
			"byteLength":48,
			"byteOffset":2872,
			"target":34962
		},
		{
			"buffer":0,
			"byteLength":32,
			"byteOffset":2920,
			"target":34962
		},
		{
			"buffer":0,
			"byteLength":12,
			"byteOffset":2952,
			"target":34963
		},
		{
			"buffer":0,
			"byteLength":48,
			"byteOffset":2964,
			"target":34962
		},
		{
			"buffer":0,
			"byteLength":48,
			"byteOffset":3012,
			"target":34962
		},
		{
			"buffer":0,
			"byteLength":32,
			"byteOffset":3060,
			"target":34962
		},
		{
			"buffer":0,
			"byteLength":48,
			"byteOffset":3092,
			"target":34962
		},
		{
			"buffer":0,
			"byteLength":48,
			"byteOffset":3140,
			"target":34962
		},
		{
			"buffer":0,
			"byteLength":32,
			"byteOffset":3188,
			"target":34962
		},
		{
			"buffer":0,
			"byteLength":48,
			"byteOffset":3220,
			"target":34962
		},
		{
			"buffer":0,
			"byteLength":48,
			"byteOffset":3268,
			"target":34962
		},
		{
			"buffer":0,
			"byteLength":32,
			"byteOffset":3316,
			"target":34962
		},
		{
			"buffer":0,
			"byteLength":12,
			"byteOffset":3348,
			"target":34963
		},
		{
			"buffer":0,
			"byteLength":48,
			"byteOffset":3360,
			"target":34962
		},
		{
			"buffer":0,
			"byteLength":48,
			"byteOffset":3408,
			"target":34962
		},
		{
			"buffer":0,
			"byteLength":32,
			"byteOffset":3456,
			"target":34962
		},
		{
			"buffer":0,
			"byteLength":48,
			"byteOffset":3488,
			"target":34962
		},
		{
			"buffer":0,
			"byteLength":48,
			"byteOffset":3536,
			"target":34962
		},
		{
			"buffer":0,
			"byteLength":32,
			"byteOffset":3584,
			"target":34962
		},
		{
			"buffer":0,
			"byteLength":12,
			"byteOffset":3616,
			"target":34963
		},
		{
			"buffer":0,
			"byteLength":48,
			"byteOffset":3628,
			"target":34962
		},
		{
			"buffer":0,
			"byteLength":48,
			"byteOffset":3676,
			"target":34962
		},
		{
			"buffer":0,
			"byteLength":32,
			"byteOffset":3724,
			"target":34962
		},
		{
			"buffer":0,
			"byteLength":48,
			"byteOffset":3756,
			"target":34962
		},
		{
			"buffer":0,
			"byteLength":48,
			"byteOffset":3804,
			"target":34962
		},
		{
			"buffer":0,
			"byteLength":32,
			"byteOffset":3852,
			"target":34962
		},
		{
			"buffer":0,
			"byteLength":12,
			"byteOffset":3884,
			"target":34963
		},
		{
			"buffer":0,
			"byteLength":48,
			"byteOffset":3896,
			"target":34962
		},
		{
			"buffer":0,
			"byteLength":48,
			"byteOffset":3944,
			"target":34962
		},
		{
			"buffer":0,
			"byteLength":32,
			"byteOffset":3992,
			"target":34962
		},
		{
			"buffer":0,
			"byteLength":12,
			"byteOffset":4024,
			"target":34963
		},
		{
			"buffer":0,
			"byteLength":48,
			"byteOffset":4036,
			"target":34962
		},
		{
			"buffer":0,
			"byteLength":48,
			"byteOffset":4084,
			"target":34962
		},
		{
			"buffer":0,
			"byteLength":32,
			"byteOffset":4132,
			"target":34962
		},
		{
			"buffer":0,
			"byteLength":12,
			"byteOffset":4164,
			"target":34963
		},
		{
			"buffer":0,
			"byteLength":48,
			"byteOffset":4176,
			"target":34962
		},
		{
			"buffer":0,
			"byteLength":48,
			"byteOffset":4224,
			"target":34962
		},
		{
			"buffer":0,
			"byteLength":32,
			"byteOffset":4272,
			"target":34962
		},
		{
			"buffer":0,
			"byteLength":12,
			"byteOffset":4304,
			"target":34963
		},
		{
			"buffer":0,
			"byteLength":288,
			"byteOffset":4316,
			"target":34962
		},
		{
			"buffer":0,
			"byteLength":288,
			"byteOffset":4604,
			"target":34962
		},
		{
			"buffer":0,
			"byteLength":192,
			"byteOffset":4892,
			"target":34962
		},
		{
			"buffer":0,
			"byteLength":72,
			"byteOffset":5084,
			"target":34963
		}
	],
	"buffers":[
		{
			"byteLength":5156,
			"uri":"frame.bin"
		}
	]
}
