{
	"asset":{
		"generator":"Khronos glTF Blender I/O v4.1.63",
		"version":"2.0"
	},
	"extensionsUsed":[
		"KHR_materials_unlit"
	],
	"scene":0,
	"scenes":[
		{
			"name":"Scene",
			"nodes":[
				0
			]
		}
	],
	"nodes":[
		{
			"mesh":0,
			"name":"\u7acb\u65b9\u4f53",
			"scale":[
				0.6212284564971924,
				0.6212284564971924,
				0.6212284564971924
			]
		}
	],
	"materials":[
		{
			"doubleSided":true,
			"extensions":{
				"KHR_materials_unlit":{}
			},
			"name":"\u7956\u7236\u72ac",
			"pbrMetallicRoughness":{
				"baseColorTexture":{
					"index":0
				},
				"metallicFactor":0,
				"roughnessFactor":0.9
			}
		}
	],
	"meshes":[
		{
			"name":"\u7acb\u65b9\u4f53",
			"primitives":[
				{
					"attributes":{
						"POSITION":0,
						"NORMAL":1,
						"TEXCOORD_0":2
					},
					"indices":3,
					"material":0
				}
			]
		}
	],
	"textures":[
		{
			"sampler":0,
			"source":0
		}
	],
	"images":[
		{
			"mimeType":"image/png",
			"name":"tex4",
			"uri":"tex4.png"
		}
	],
	"accessors":[
		{
			"bufferView":0,
			"componentType":5126,
			"count":2665,
			"max":[
				3.9367618560791016,
				3.7504618167877197,
				4.590774059295654
			],
			"min":[
				-3.9367618560791016,
				-3.9790515899658203,
				-7.2981276512146
			],
			"type":"VEC3"
		},
		{
			"bufferView":1,
			"componentType":5126,
			"count":2665,
			"type":"VEC3"
		},
		{
			"bufferView":2,
			"componentType":5126,
			"count":2665,
			"type":"VEC2"
		},
		{
			"bufferView":3,
			"componentType":5123,
			"count":11316,
			"type":"SCALAR"
		}
	],
	"bufferViews":[
		{
			"buffer":0,
			"byteLength":31980,
			"byteOffset":0,
			"target":34962
		},
		{
			"buffer":0,
			"byteLength":31980,
			"byteOffset":31980,
			"target":34962
		},
		{
			"buffer":0,
			"byteLength":21320,
			"byteOffset":63960,
			"target":34962
		},
		{
			"buffer":0,
			"byteLength":22632,
			"byteOffset":85280,
			"target":34963
		}
	],
	"samplers":[
		{
			"magFilter":9729,
			"minFilter":9987
		}
	],
	"buffers":[
		{
			"byteLength":107912,
			"uri":"sofken.bin"
		}
	]
}
